<svg width="49" height="49" viewBox="0 0 49 49" fill="none" xmlns="http://www.w3.org/2000/svg">
  <path d="M38.5621 19.176C39.9301 18.076 40.8071 16.391 40.8071 14.5C40.8071 11.187 38.1201 8.5 34.8071 8.5C31.9461 8.5 29.5571 10.504 28.9561 13.185C27.6681 12.702 26.2731 12.427 24.8071 12.427C23.3421 12.427 21.9461 12.702 20.6581 13.185C20.0571 10.504 17.6681 8.5 14.8071 8.5C11.4941 8.5 8.80713 11.187 8.80713 14.5C8.80713 16.391 9.68413 18.076 11.0521 19.176C8.40713 21.856 6.80713 25.185 6.80713 28.5C6.80713 35.956 14.8661 29.5 24.8071 29.5C34.7481 29.5 42.8071 35.956 42.8071 28.5C42.8071 25.185 41.2071 21.856 38.5621 19.176Z" fill="#7EB77F"/>
  <path d="M20.8071 27.5C21.3594 27.5 21.8071 27.0523 21.8071 26.5C21.8071 25.9477 21.3594 25.5 20.8071 25.5C20.2548 25.5 19.8071 25.9477 19.8071 26.5C19.8071 27.0523 20.2548 27.5 20.8071 27.5Z" fill="#7EB77F"/>
  <path d="M20.8071 27.5C21.3594 27.5 21.8071 27.0523 21.8071 26.5C21.8071 25.9477 21.3594 25.5 20.8071 25.5C20.2548 25.5 19.8071 25.9477 19.8071 26.5C19.8071 27.0523 20.2548 27.5 20.8071 27.5Z" fill="black"/>
  <path d="M28.8071 27.5C29.3594 27.5 29.8071 27.0523 29.8071 26.5C29.8071 25.9477 29.3594 25.5 28.8071 25.5C28.2548 25.5 27.8071 25.9477 27.8071 26.5C27.8071 27.0523 28.2548 27.5 28.8071 27.5Z" fill="#7EB77F"/>
  <path d="M28.8071 27.5C29.3594 27.5 29.8071 27.0523 29.8071 26.5C29.8071 25.9477 29.3594 25.5 28.8071 25.5C28.2548 25.5 27.8071 25.9477 27.8071 26.5C27.8071 27.0523 28.2548 27.5 28.8071 27.5Z" fill="black"/>
  <path d="M14.3071 17.5C16.2401 17.5 17.8071 15.933 17.8071 14C17.8071 12.067 16.2401 10.5 14.3071 10.5C12.3741 10.5 10.8071 12.067 10.8071 14C10.8071 15.933 12.3741 17.5 14.3071 17.5Z" fill="white"/>
  <path d="M35.3071 17.5C37.2401 17.5 38.8071 15.933 38.8071 14C38.8071 12.067 37.2401 10.5 35.3071 10.5C33.3741 10.5 31.8071 12.067 31.8071 14C31.8071 15.933 33.3741 17.5 35.3071 17.5Z" fill="white"/>
  <path d="M14.3071 15.5C15.1356 15.5 15.8071 14.8284 15.8071 14C15.8071 13.1716 15.1356 12.5 14.3071 12.5C13.4787 12.5 12.8071 13.1716 12.8071 14C12.8071 14.8284 13.4787 15.5 14.3071 15.5Z" fill="black"/>
  <path d="M35.3071 15.5C36.1356 15.5 36.8071 14.8284 36.8071 14C36.8071 13.1716 36.1356 12.5 35.3071 12.5C34.4787 12.5 33.8071 13.1716 33.8071 14C33.8071 14.8284 34.4787 15.5 35.3071 15.5Z" fill="black"/>
  <path d="M38.5679 19.1711C38.566 19.1727 38.5641 19.1742 38.5621 19.1758C38.5621 19.1757 38.5622 19.1758 38.5621 19.1758L38.5679 19.1711C38.5679 19.1712 38.5678 19.1711 38.5679 19.1711Z" fill="#E2DADB"/>
  <path d="M11.0521 19.1758C11.052 19.1759 11.0522 19.1757 11.0521 19.1758C11.0501 19.1742 11.0481 19.1726 11.0461 19.1709C11.046 19.171 11.0462 19.1708 11.0461 19.1709L11.0521 19.1758Z" fill="#E2DADB"/>
  <path d="M24.8069 40.5003C17.6186 40.5003 11.4144 38.1244 8.52957 33.9896C9.00498 34.0805 9.47832 34.1051 9.9251 34.0952C10.7519 34.0771 11.6269 33.9368 12.4894 33.7563C13.4891 33.547 14.5178 33.2814 15.5822 33.0066C18.3716 32.2864 21.4069 31.5028 24.8069 31.5028C28.207 31.5028 31.2419 32.2863 34.0313 33.0065C35.0958 33.2813 36.1249 33.547 37.1245 33.7563C37.987 33.9368 38.862 34.0771 39.6888 34.0952C40.1355 34.1051 40.6088 34.0806 41.0842 33.9896C38.1994 38.1244 31.9951 40.5003 24.8069 40.5003Z" fill="#E2DADB"/>
</svg>
